#!OML:ASF F:\VICON\USERDATA\INSTALL\rory3\rory3.ASF
:FULLY-SPECIFIED
:DEGREES
720
root 2.56965 9.71793 -5.43018 -15.7884 -4.6332 2.1941
lowerback 30.519 0.954483 1.22812
upperback 13.7626 1.5943 2.52933
thorax -1.21296 0.732139 1.60331
lowerneck -18.1562 13.7252 -4.53938
upperneck 9.93764 20.5888 -6.81905
head 6.2254 9.25955 0.69354
rclavicle 2.70347e-014 3.57812e-014
rhumerus -11.4656 16.7759 -78.9533
rradius 98.3393
rwrist 29.0009
rhand -32.5467 11.8675
rfingers 7.12502
rthumb -5.77656 -18.0337
lclavicle 2.70347e-014 3.57812e-014
lhumerus -7.82366 -20.1116 90.5068
lradius 87.4684
lwrist -22.1789
lhand -29.8873 18.349
lfingers 7.12502
lthumb -3.20863 48.3046
rfemur -80.1606 -12.0638 22.1609
rtibia 107.434
rfoot -5.48557 4.03476
rtoes 9.03008
lfemur -79.4196 11.4449 -25.1501
ltibia 103.164
lfoot -6.49241 -9.99259
ltoes -5.96911
721
root 2.57197 9.71632 -5.42715 -15.6797 -4.5325 2.11148
lowerback 30.423 0.873133 1.34012
upperback 13.7562 1.51864 2.49045
thorax -1.17229 0.701869 1.51982
lowerneck -18.5277 13.4081 -4.65235
upperneck 10.1751 20.1896 -6.51113
head 6.31218 9.05936 0.789264
rclavicle -1.98785e-014 -6.36111e-015
rhumerus -11.4165 16.7363 -79.0347
rradius 98.3044
rwrist 29.0609
rhand -32.5096 11.9482
rfingers 7.12502
rthumb -5.74076 -17.954
lclavicle -1.98785e-014 -6.36111e-015
lhumerus -7.79087 -20.1075 90.4171
lradius 87.5226
lwrist -22.177
lhand -29.8431 18.3865
lfingers 7.12502
lthumb -3.16592 48.3427
rfemur -80.284 -12.1978 22.2378
rtibia 107.46
rfoot -5.50347 4.07874
rtoes 9.30433
lfemur -79.571 11.3014 -25.1058
ltibia 103.196
lfoot -6.47662 -10.0316
ltoes -5.9369
722
root 2.5749 9.71297 -5.42424 -15.5983 -4.38506 2.0437
lowerback 30.3617 0.789902 1.39927
upperback 13.757 1.42834 2.46803
thorax -1.14044 0.661284 1.48888
lowerneck -18.7579 13.0831 -4.67621
upperneck 10.229 19.7578 -6.37984
head 6.34685 8.84864 0.802294
rclavicle -2.14687e-014 -1.35174e-014
rhumerus -11.3936 16.7296 -79.0861
rradius 98.3334
rwrist 29.0374
rhand -32.4644 11.8452
rfingers 7.12502
rthumb -5.69712 -18.0582
lclavicle -2.14687e-014 -1.35174e-014
lhumerus -7.71658 -20.1083 90.3428
lradius 87.5413
lwrist -22.1882
lhand -29.8431 18.4132
lfingers 7.12502
lthumb -3.1659 48.3694
rfemur -80.4086 -12.3759 22.2861
rtibia 107.494
rfoot -5.50401 4.08021
rtoes 9.15989
lfemur -79.7113 11.1071 -25.0977
ltibia 103.226
lfoot -6.4212 -10.0299
ltoes -5.88993
723
root 2.57138 9.71304 -5.42326 -15.5938 -4.51483 2.0959
lowerback 30.3613 0.862601 1.23004
upperback 13.755 1.47166 2.42631
thorax -1.14697 0.675788 1.52679
lowerneck -19.0114 12.7394 -4.80367
upperneck 10.4166 19.3092 -6.05471
head 6.39819 8.63426 0.888853
rclavicle -8.34896e-015 -1.03368e-014
rhumerus -11.367 16.7778 -79.1501
rradius 98.2741
rwrist 29.0252
rhand -32.5067 11.956
rfingers 7.12502
rthumb -5.738 -17.9463
lclavicle -8.34896e-015 -1.03368e-014
lhumerus -7.74637 -20.0803 90.2606
lradius 87.5888
lwrist -22.2563
lhand -29.8209 18.4832
lfingers 7.12502
lthumb -3.14454 48.4397
rfemur -80.4231 -12.2264 22.2935
rtibia 107.49
rfoot -5.51945 4.05062
rtoes 8.85453
lfemur -79.6964 11.2741 -25.1117
ltibia 103.235
lfoot -6.44445 -10.0282
ltoes -5.89505
724
root 2.56999 9.7135 -5.42279 -15.592 -4.58843 2.13295
lowerback 30.3681 0.906941 1.12646
upperback 13.7231 1.49847 2.38381
thorax -1.1889 0.685568 1.53069
lowerneck -19.1686 12.3062 -4.93811
upperneck 10.5741 18.7302 -5.72061
head 6.42481 8.36299 0.957993
rclavicle 3.22031e-014 2.70347e-014
rhumerus -11.4058 16.8639 -79.2116
rradius 98.1967
rwrist 28.9233
rhand -32.6268 11.9595
rfingers 7.12502
rthumb -5.85389 -17.9396
lclavicle 3.22031e-014 2.70347e-014
lhumerus -7.84913 -20.0709 90.2586
lradius 87.6211
lwrist -22.2837
lhand -29.8669 18.4675
lfingers 7.12502
lthumb -3.18893 48.4234
rfemur -80.4296 -12.1574 22.2832
rtibia 107.486
rfoot -5.51312 4.04609
rtoes 8.77249
lfemur -79.6557 11.3625 -25.1406
ltibia 103.214
lfoot -6.47763 -10.0043
ltoes -6.0726
725
root 2.57078 9.71143 -5.42066 -15.5505 -4.54102 2.09152
lowerback 30.3575 0.885968 1.14166
upperback 13.6966 1.47617 2.36146
thorax -1.21321 0.676259 1.50377
lowerneck -19.3742 11.7933 -5.03863
upperneck 10.7265 18.0485 -5.44256
head 6.46946 8.03729 0.999455
rclavicle 6.75868e-015 -1.59028e-015
rhumerus -11.4295 16.8897 -79.2448
rradius 98.1448
rwrist 28.8355
rhand -32.7293 12.0044
rfingers 7.12502
rthumb -5.95286 -17.892
lclavicle 6.75868e-015 -1.59028e-015
lhumerus -7.90713 -20.0311 90.2752
lradius 87.6668
lwrist -22.1967
lhand -29.894 18.2169
lfingers 7.12502
lthumb -3.21511 48.1724
rfemur -80.4823 -12.204 22.3115
rtibia 107.504
rfoot -5.51461 4.05299
rtoes 8.9907
lfemur -79.7043 11.2947 -25.1218
ltibia 103.205
lfoot -6.49383 -10.0207
ltoes -5.93907
726
root 2.57112 9.71155 -5.41998 -15.5107 -4.51806 2.08208
lowerback 30.3192 0.855384 1.10714
upperback 13.6723 1.4268 2.32702
thorax -1.22324 0.651456 1.50042
lowerneck -19.4839 11.3178 -5.23436
upperneck 10.8489 17.4281 -5.14776
head 6.48188 7.74477 1.05771
rclavicle 1.74931e-014 1.43125e-014
rhumerus -11.4659 16.9978 -79.2998
rradius 98.1388
rwrist 28.8879
rhand -32.8269 11.9234
rfingers 7.12502
rthumb -6.04714 -17.9703
lclavicle 1.74931e-014 1.43125e-014
lhumerus -7.96493 -19.9519 90.2493
lradius 87.6992
lwrist -22.1559
lhand -29.8639 18.2219
lfingers 7.12502
lthumb -3.18603 48.1779
rfemur -80.5205 -12.212 22.3103
rtibia 107.51
rfoot -5.54135 4.07147
rtoes 8.78601
lfemur -79.7722 11.2634 -25.1402
ltibia 103.218
lfoot -6.54431 -9.98149
ltoes -6.21004
727
root 2.57122 9.71069 -5.41981 -15.5122 -4.50444 2.06715
lowerback 30.3249 0.834416 1.03608
upperback 13.6675 1.38058 2.30546
thorax -1.23153 0.625762 1.53118
lowerneck -19.4517 10.7987 -5.37138
upperneck 10.7731 16.7247 -4.97017
head 6.42648 7.42016 1.04971
rclavicle 2.70347e-014 1.82882e-014
rhumerus -11.4331 17.145 -79.3264
rradius 98.064
rwrist 28.9289
rhand -32.9158 11.8251
rfingers 7.12502
rthumb -6.13289 -18.0662
lclavicle 2.70347e-014 1.82882e-014
lhumerus -7.91938 -19.8472 90.2008
lradius 87.6683
lwrist -22.1949
lhand -29.7728 18.2387
lfingers 7.12502
lthumb -3.09806 48.196
rfemur -80.5244 -12.2505 22.3315
rtibia 107.524
rfoot -5.56228 4.05287
rtoes 8.47875
lfemur -79.7889 11.2496 -25.1301
ltibia 103.239
lfoot -6.51945 -9.95599
ltoes -6.16862
728
root 2.57116 9.71066 -5.42043 -15.5235 -4.4839 2.05797
lowerback 30.2817 0.820019 0.958657
upperback 13.721 1.33777 2.27115
thorax -1.15126 0.602036 1.55159
lowerneck -19.6411 10.2557 -5.40826
upperneck 10.8091 15.9965 -4.82079
head 6.45577 7.07142 1.03543
rclavicle 1.94809e-014 3.18055e-014
rhumerus -11.2429 17.245 -79.3302
rradius 97.9528
rwrist 28.947
rhand -32.8733 11.7656
rfingers 7.12502
rthumb -6.09191 -18.1268
lclavicle 1.94809e-014 3.18055e-014
lhumerus -7.79502 -19.8038 90.0781
lradius 87.6384
lwrist -22.1483
lhand -29.7997 18.2643
lfingers 7.12502
lthumb -3.12402 48.2212
rfemur -80.5199 -12.296 22.3326
rtibia 107.544
rfoot -5.5503 4.05302
rtoes 8.66908
lfemur -79.7615 11.2247 -25.1045
ltibia 103.228
lfoot -6.42238 -9.98312
ltoes -5.79194
729
root 2.57123 9.70969 -5.41972 -15.503 -4.50138 1.99169
lowerback 30.2284 0.797285 0.911517
upperback 13.7517 1.29354 2.2603
thorax -1.09241 0.577734 1.58065
lowerneck -19.7981 9.74188 -5.43297
upperneck 10.8703 15.3144 -4.73068
head 6.49545 6.73954 1.00516
rclavicle 1.11319e-014 -2.38542e-015
rhumerus -11.1078 17.3754 -79.3496
rradius 97.8201
rwrist 29.0498
rhand -33.0226 11.6412
rfingers 7.12502
rthumb -6.23604 -18.247
lclavicle 1.11319e-014 -2.38542e-015
lhumerus -7.73792 -19.7049 89.9972
lradius 87.6301
lwrist -22.1643
lhand -29.869 18.2697
lfingers 7.12502
lthumb -3.19097 48.2255
rfemur -80.5262 -12.2643 22.4022
rtibia 107.546
rfoot -5.51259 4.06831
rtoes 8.8949
lfemur -79.8034 11.243 -25.0227
ltibia 103.238
lfoot -6.3775 -9.98097
ltoes -5.3713
